<?xml version="1.0" encoding="utf-8"?>
<!-- Generator: Adobe Illustrator 16.0.0, SVG Export Plug-In . SVG Version: 6.00 Build 0)  -->
<!DOCTYPE svg PUBLIC "-//W3C//DTD SVG 1.1//EN" "http://www.w3.org/Graphics/SVG/1.1/DTD/svg11.dtd">
<svg version="1.1" id="Layer_1" xmlns="http://www.w3.org/2000/svg" xmlns:xlink="http://www.w3.org/1999/xlink" x="0px" y="0px"
	 width="47px" height="40px" viewBox="0 0 47 40" enable-background="new 0 0 47 40" xml:space="preserve">
<path fill="#EB9138" d="M34.602,27.691l11.361-3.896c-1.801-2.601-5.265-3.686-8.36-2.624c-2.889,0.991-4.771,3.624-4.658,6.52
	c-0.112,2.896,1.769,5.529,4.658,6.521c3.096,1.062,6.56-0.026,8.36-2.624L34.602,27.691z"/>
<path fill="#FCF055" d="M13.811,10.84H35.21v26.85H13.811V10.84z"/>
<path fill="#5CD2A7" d="M14.799,10.731c0.314-5.564,4.741-9.91,10.098-9.915c5.356,0.007,9.78,4.352,10.096,9.915H14.799z"/>
<ellipse cx="28.712" cy="17.834" rx="3.056" ry="3.069"/>
<path fill="#1F1F1F" d="M46.729,23.777l-0.42-0.646c-1.914-2.96-5.612-4.195-8.908-2.976c-0.546,0.203-1.067,0.467-1.552,0.791
	v-9.801c0.001-0.412-0.022-0.824-0.067-1.233C35.146,4.265,30.393-0.001,24.739,0c-5.658-0.005-10.416,4.263-11.05,9.912H0.606
	c-0.161,0-0.315,0.063-0.428,0.178C0.064,10.204,0,10.358,0,10.52c0,0.161,0.064,0.315,0.178,0.429
	c0.114,0.114,0.268,0.177,0.428,0.177h13.011v26.565h22.231v-3.574c0.484,0.32,1.003,0.585,1.547,0.787
	c0.835,0.305,1.716,0.46,2.604,0.46c2.544-0.001,4.915-1.296,6.299-3.44l0.417-0.641l-10.287-3.754L46.729,23.777z M24.739,1.215
	c4.988,0.001,9.198,3.726,9.832,8.697H14.906C15.54,4.94,19.75,1.216,24.739,1.215z M34.641,36.48H14.827V11.146h19.814V36.48z
	 M35.848,22.451c0.582-0.499,1.249-0.889,1.968-1.148h0.003c0.701-0.257,1.44-0.389,2.187-0.389c1.864-0.001,3.632,0.827,4.83,2.262
	l-8.987,3.276L35.848,22.451L35.848,22.451z M44.832,31.889c-1.712,2.049-4.519,2.797-7.017,1.872v0.005
	c-0.718-0.262-1.382-0.65-1.962-1.149v-4.003L44.832,31.889z"/>
<g>
	<g>
		<path fill="#1F1F1F" d="M40.788,8.857v0.951h-0.28V7.512h0.595c0.099,0,0.186,0.003,0.255,0.011
			c0.071,0.008,0.134,0.019,0.192,0.036c0.161,0.043,0.284,0.117,0.368,0.222c0.084,0.104,0.126,0.235,0.126,0.392
			c0,0.092-0.015,0.175-0.045,0.249c-0.03,0.073-0.071,0.137-0.124,0.19c-0.055,0.054-0.12,0.098-0.194,0.133
			c-0.074,0.034-0.157,0.06-0.249,0.075v0.007l0.68,0.981h-0.28l-0.708-0.951H40.788z M40.788,7.764v0.841h0.275
			c0.086,0,0.159-0.003,0.221-0.008c0.06-0.006,0.114-0.016,0.162-0.031c0.098-0.03,0.172-0.078,0.226-0.143
			c0.051-0.065,0.078-0.151,0.078-0.256c0-0.098-0.027-0.177-0.075-0.237c-0.05-0.061-0.118-0.104-0.204-0.13
			c-0.042-0.012-0.091-0.021-0.147-0.027c-0.058-0.006-0.131-0.008-0.219-0.008H40.788z"/>
	</g>
	<path fill="#1F1F1F" d="M41.287,11.436c-1.51,0-2.737-1.229-2.737-2.739c0-1.509,1.227-2.738,2.737-2.738s2.739,1.229,2.739,2.738
		C44.026,10.207,42.797,11.436,41.287,11.436z M41.287,6.165c-1.396,0-2.533,1.136-2.533,2.532s1.137,2.533,2.533,2.533
		c1.397,0,2.533-1.137,2.533-2.533S42.685,6.165,41.287,6.165z"/>
</g>
</svg>
